<svg width="14" height="15" viewBox="0 0 14 15" fill="none" xmlns="http://www.w3.org/2000/svg">
<path d="M3.45703 0.519531C3.60908 0.524963 3.75857 0.567595 3.8916 0.644531C4.0675 0.746368 4.20523 0.902632 4.28418 1.08984L5.70605 4.4082H5.70703C5.76846 4.54974 5.79355 4.7046 5.78125 4.8584C5.7689 5.01218 5.71892 5.16108 5.63574 5.29102L5.63379 5.29395L4.45215 7.08887L4.45312 7.08984C4.43535 7.11731 4.42494 7.14899 4.42285 7.18164C4.4208 7.2136 4.42693 7.2454 4.44043 7.27441L4.54688 7.4834C5.1004 8.51319 5.96657 9.34348 7.02344 9.85254C7.05345 9.86675 7.087 9.87361 7.12012 9.87109C7.15321 9.86857 7.18538 9.85744 7.21289 9.83887L7.21387 9.83691L8.9834 8.65527C9.11347 8.56756 9.26368 8.51443 9.41992 8.5C9.57601 8.48562 9.73316 8.51094 9.87695 8.57324H9.87793L13.1855 9.99414H13.1865C13.3755 10.0728 13.5332 10.2115 13.6357 10.3887C13.7127 10.5217 13.7553 10.6712 13.7607 10.8232L13.7539 10.9756C13.6373 11.8854 13.1934 12.722 12.5049 13.3281C11.8163 13.9342 10.93 14.2683 10.0127 14.2686C7.3603 14.2685 4.81694 13.2144 2.94141 11.3389C1.18314 9.5806 0.14715 7.23544 0.0244141 4.76367L0.0117188 4.26758C0.0119255 3.35029 0.346106 2.46395 0.952148 1.77539C1.55824 1.08684 2.39483 0.642974 3.30469 0.526367L3.45703 0.519531ZM3.40039 1.27051C2.67153 1.36389 2.00122 1.71902 1.51562 2.27051C1.03 2.82219 0.761884 3.5326 0.761719 4.26758L0.773438 4.72559C0.886772 7.01231 1.84506 9.18198 3.47168 10.8086C5.20656 12.5435 7.55921 13.5185 10.0127 13.5186C10.7476 13.5184 11.4571 13.2502 12.0088 12.7646C12.5605 12.279 12.9164 11.6089 13.0098 10.8799C13.0149 10.84 13.0074 10.7995 12.9873 10.7646C12.9671 10.7297 12.9357 10.7021 12.8984 10.6865L12.8945 10.6846L9.58203 9.26172L9.5791 9.26074C9.55088 9.24851 9.5199 9.24334 9.48926 9.24609C9.45829 9.24895 9.42808 9.2599 9.40234 9.27734L9.40039 9.2793L7.63086 10.4609L7.62988 10.46C7.49477 10.5508 7.33911 10.6058 7.17676 10.6182C7.01386 10.6305 6.85079 10.6002 6.70312 10.5303L6.7002 10.5293C5.41929 9.91295 4.38516 8.88094 3.76562 7.60156L3.76465 7.60059C3.69517 7.4554 3.66356 7.29441 3.67383 7.13379C3.68412 6.97317 3.73582 6.81775 3.82324 6.68262L3.8252 6.68066L5.00391 4.88574C5.02077 4.85935 5.03168 4.82907 5.03418 4.79785C5.03658 4.76677 5.03096 4.73563 5.01855 4.70703L5.01758 4.70508L3.5957 1.38574L3.59375 1.38184C3.57822 1.34459 3.55056 1.31317 3.51562 1.29297C3.48077 1.27291 3.44029 1.26541 3.40039 1.27051ZM8.34668 3.26074C8.98799 3.43114 9.57275 3.76812 10.042 4.2373C10.5114 4.70668 10.8482 5.29204 11.0186 5.93359C11.0716 6.13365 10.9529 6.33836 10.7529 6.3916C10.5528 6.44476 10.3471 6.32611 10.2939 6.12598C10.1575 5.61221 9.8876 5.14346 9.51172 4.76758C9.13586 4.39178 8.66702 4.12178 8.15332 3.98535C7.95341 3.93201 7.83457 3.72639 7.8877 3.52637C7.94104 3.32646 8.14665 3.20762 8.34668 3.26074ZM8.93555 1.07422C9.95925 1.34906 10.893 1.88822 11.6426 2.6377C12.3921 3.38735 12.9313 4.32183 13.2061 5.3457C13.2594 5.54551 13.1412 5.75099 12.9414 5.80469C12.7416 5.85825 12.5353 5.73975 12.4814 5.54004C12.2408 4.64337 11.7687 3.82552 11.1123 3.16895C10.4557 2.5123 9.63712 2.03956 8.74023 1.79883C8.5406 1.74502 8.42224 1.53862 8.47559 1.33887C8.52943 1.13908 8.73565 1.02057 8.93555 1.07422Z" fill="black"/>
</svg>
