<svg width="16" height="16" viewBox="0 0 16 16" fill="none" xmlns="http://www.w3.org/2000/svg">
<path d="M14.0713 0.459961C15.0041 0.460037 15.7637 1.22054 15.7637 2.15332V9.56934C15.7637 10.5021 15.0041 11.2626 14.0713 11.2627H14.0547V11.2793C14.0546 12.212 13.2941 12.9717 12.3613 12.9717H6.08398C5.90885 13.272 5.50277 13.8994 4.89258 14.4551C4.27383 15.0185 3.44288 15.5107 2.42871 15.5107C2.33262 15.5106 2.24232 15.4693 2.17969 15.4004L2.12695 15.3223C2.07178 15.2049 2.08523 15.0696 2.16504 14.9688C2.80263 14.1655 2.90051 13.3747 2.9043 12.9717H1.70312C0.770369 12.9717 0.00988752 12.212 0.00976562 11.2793V3.8623C0.0099251 2.92961 0.770392 2.16992 1.70312 2.16992H1.71973V2.15332C1.71973 1.22059 2.47941 0.460122 3.41211 0.459961H14.0713ZM1.69922 2.83691C1.13493 2.83717 0.673988 3.298 0.673828 3.8623V11.2754C0.673828 11.8399 1.13483 12.3015 1.69922 12.3018H3.22266C3.23519 12.3018 3.24621 12.3054 3.25293 12.3076C3.26052 12.3101 3.26429 12.3115 3.26758 12.3115H3.27637L3.27539 12.3125C3.28427 12.3154 3.29424 12.3173 3.2998 12.3174H3.30469V12.3184C3.32298 12.322 3.34119 12.328 3.3584 12.3359L3.40723 12.3633L3.4082 12.3643C3.49311 12.4256 3.55652 12.5191 3.55664 12.6348V12.6514H3.55566C3.58446 12.8984 3.62835 13.7629 3.1084 14.7363C3.8593 14.5163 4.47064 13.9723 4.89844 13.4707C5.11745 13.2139 5.28793 12.9687 5.4043 12.7871C5.46239 12.6964 5.50681 12.6213 5.53711 12.5684C5.5522 12.542 5.56435 12.5215 5.57227 12.5068L5.58398 12.4834L5.58496 12.4824C5.64095 12.3739 5.74897 12.3146 5.8623 12.3076H5.86914L5.88672 12.3037L5.88867 12.3027H5.88965L5.89648 12.3008V12.3018H12.3584C12.9015 12.3018 13.3475 11.8749 13.3809 11.3398V3.8623C13.3807 3.29794 12.9198 2.83706 12.3555 2.83691H1.69922ZM3.40918 1.12695C2.84459 1.12696 2.38379 1.58873 2.38379 2.15332V2.16992H12.3584C13.2911 2.16992 14.0506 2.92961 14.0508 3.8623V10.5918H14.0684C14.6111 10.5916 15.0573 10.1655 15.0908 9.63086V2.15332C15.0908 1.58872 14.629 1.12695 14.0645 1.12695H3.40918Z" fill="black"/>
</svg>
