<svg width="17" height="17" viewBox="0 0 17 17" fill="none" xmlns="http://www.w3.org/2000/svg">
<path d="M8.88574 0.251953C9.19835 0.251953 9.48503 0.382559 9.69043 0.620117C10.0264 1.00807 10.6214 1.12739 11.083 0.897461C11.233 0.822466 11.3923 0.785167 11.5586 0.785156C12.018 0.785156 12.4236 1.07856 12.5684 1.51465C12.735 2.01421 13.2135 2.34015 13.749 2.30273C14.0899 2.27775 14.3842 2.4015 14.6055 2.63867C14.8091 2.85662 14.909 3.14131 14.8877 3.43945C14.8501 3.96863 15.1754 4.45356 15.6768 4.62012C15.9733 4.71838 16.2045 4.93335 16.3242 5.22266C16.4438 5.51177 16.432 5.82668 16.291 6.10547C16.0542 6.57909 16.1692 7.15287 16.5693 7.49902C16.8036 7.70119 16.9355 7.99473 16.9355 8.30371C16.9355 8.57432 16.8355 8.83003 16.6523 9.02734L16.5693 9.10742C16.1692 9.45364 16.0552 10.0274 16.292 10.501C16.4311 10.7811 16.4438 11.0944 16.3242 11.3838C16.2045 11.6731 15.9733 11.888 15.6768 11.9863C15.1737 12.1529 14.8485 12.6397 14.8877 13.167C14.9091 13.4652 14.8091 13.7497 14.6055 13.9678C14.3839 14.2054 14.0727 14.327 13.751 14.3037C13.212 14.2645 12.735 14.5928 12.5684 15.0928C12.4235 15.5287 12.0179 15.8223 11.5586 15.8223C11.3923 15.8223 11.233 15.784 11.083 15.709C10.923 15.6291 10.7432 15.5869 10.5654 15.5869C10.229 15.5869 9.91088 15.7326 9.69043 15.9873C9.48491 16.2249 9.19812 16.3535 8.88574 16.3535C8.57311 16.3535 8.28643 16.2231 8.08105 15.9873C7.74349 15.5975 7.14843 15.4792 6.68848 15.709C6.53848 15.784 6.3791 15.8223 6.21289 15.8223C5.75358 15.8223 5.34795 15.5287 5.20312 15.0928C5.03653 14.593 4.5597 14.2662 4.02051 14.3037C3.69744 14.3251 3.38769 14.2055 3.16602 13.9678C2.96233 13.7497 2.86236 13.4652 2.88379 13.167L2.88672 13.0684C2.88001 12.5798 2.56457 12.1425 2.09473 11.9863C1.80153 11.8897 1.5652 11.6697 1.44727 11.3838C1.32776 11.0947 1.33856 10.7813 1.47949 10.501C1.7015 10.057 1.61481 9.52576 1.27344 9.17578L1.20215 9.10742C0.966569 8.90211 0.836004 8.61613 0.835938 8.30371C0.835938 7.99107 0.966415 7.70445 1.20215 7.49902L1.27344 7.43164C1.61498 7.08176 1.70146 6.55056 1.47949 6.10645C1.33834 5.82593 1.3276 5.51198 1.44727 5.22266C1.56697 4.93334 1.79817 4.71838 2.09473 4.62012C2.59757 4.45359 2.92278 3.96762 2.88379 3.44043V3.43945C2.86248 3.14291 2.96257 2.85818 3.16602 2.63867L3.25293 2.55566C3.46307 2.37362 3.72849 2.28243 4.02051 2.30273H4.02441C4.05352 2.30436 4.07968 2.30664 4.10547 2.30664C4.60516 2.30664 5.04631 1.98808 5.20312 1.51465C5.34789 1.07855 5.7535 0.785156 6.21289 0.785156C6.3791 0.785166 6.53849 0.822465 6.68848 0.897461C6.84848 0.97746 7.02813 1.02051 7.20605 1.02051C7.54235 1.0205 7.8606 0.874765 8.08105 0.620117C8.28645 0.382561 8.57308 0.251957 8.88574 0.251953ZM9.10156 1.12109C8.98683 0.989426 8.77176 0.990138 8.65723 1.12207C8.29005 1.5449 7.76039 1.78807 7.19922 1.78809C6.97505 1.78809 6.75182 1.74835 6.54199 1.67188L6.33691 1.58301C6.17738 1.50336 5.98143 1.58991 5.92773 1.75391C5.64997 2.58504 4.84073 3.13143 3.96387 3.06836L3.93848 3.06934C3.8552 3.06935 3.7815 3.10084 3.72461 3.16211C3.66789 3.22326 3.64158 3.29847 3.64746 3.38379C3.71021 4.26311 3.17031 5.07237 2.33301 5.35059C2.24923 5.37851 2.18679 5.43511 2.15332 5.5166C2.11958 5.59875 2.12262 5.68271 2.16211 5.76172C2.55726 6.55045 2.36645 7.50495 1.7002 8.08203C1.63419 8.13921 1.59863 8.21637 1.59863 8.30371C1.59868 8.36962 1.61811 8.42898 1.65625 8.47852L1.7002 8.52441C2.36652 9.10154 2.55738 10.0569 2.16211 10.8457C2.12274 10.9246 2.11997 11.0079 2.15332 11.0879V11.0889C2.17727 11.1476 2.22007 11.1967 2.27344 11.2285L2.33105 11.2539L2.48438 11.3125C3.23372 11.6338 3.70542 12.3971 3.64648 13.2217C3.64061 13.3053 3.66598 13.3823 3.72266 13.4434C3.77927 13.5043 3.85278 13.5348 3.93555 13.5352C4.00647 13.5318 4.05161 13.5313 4.09863 13.5312C4.92921 13.5312 5.66529 14.061 5.92773 14.8496C5.98133 15.0118 6.17893 15.0985 6.33691 15.0205C6.60428 14.8877 6.90196 14.8154 7.20117 14.8154H7.20605C7.76538 14.8154 8.29658 15.0586 8.66211 15.4814H8.66309C8.77774 15.6135 8.99277 15.6135 9.10742 15.4814C9.47289 15.0586 10.0042 14.8155 10.5635 14.8154C10.8606 14.8154 11.1598 14.8858 11.4258 15.0205C11.5834 15.1001 11.7815 15.0142 11.8369 14.8496C12.1133 14.0175 12.9139 13.4723 13.8018 13.5332C13.8616 13.5362 13.9058 13.5291 13.9414 13.5137C13.9773 13.4981 14.008 13.4739 14.0381 13.4414C14.0806 13.3956 14.1057 13.3421 14.1133 13.2822L14.1152 13.2197C14.0525 12.3402 14.593 11.531 15.4307 11.2529C15.5139 11.2252 15.5758 11.167 15.6094 11.0869C15.6429 11.0068 15.6401 10.9229 15.6006 10.8438C15.2054 10.055 15.3962 9.09957 16.0625 8.52246C16.1284 8.46524 16.1641 8.38894 16.1641 8.30176C16.1641 8.21418 16.1286 8.13616 16.0635 8.08105H16.0625C15.3962 7.50395 15.2054 6.54853 15.6006 5.75977C15.6401 5.68077 15.6431 5.59678 15.6094 5.51465C15.5758 5.43307 15.5155 5.37743 15.4307 5.34961C14.593 5.07154 14.0524 4.26144 14.1152 3.38184C14.1211 3.2981 14.0948 3.22125 14.0381 3.16016C13.9812 3.09896 13.9075 3.06738 13.8242 3.06738C13.753 3.07236 13.7077 3.07227 13.6621 3.07227C12.8317 3.07208 12.0953 2.54246 11.833 1.75391C11.7793 1.59145 11.5823 1.50358 11.4229 1.58301C11.1556 1.71577 10.8581 1.78805 10.5605 1.78809C10.0009 1.78809 9.46878 1.54427 9.10156 1.12109ZM9.36816 10.334C9.4904 10.334 9.58971 10.4335 9.58984 10.5557V11.3213C9.58976 11.4435 9.49042 11.543 9.36816 11.543H8.56836C8.44617 11.5429 8.34677 11.4435 8.34668 11.3213V10.5557C8.34681 10.4336 8.44618 10.3341 8.56836 10.334H9.36816ZM9.27148 5.25293C10.2958 5.25295 11.1562 5.93505 11.1562 6.92188C11.1562 7.27815 11.0603 7.57437 10.8643 7.83984C10.718 8.03787 10.5175 8.2178 10.2627 8.39258L9.98926 8.56641C9.75205 8.70444 9.60808 8.813 9.52246 8.92578C9.43904 9.0357 9.40824 9.15363 9.4082 9.31934V9.58984C9.40815 9.71204 9.3088 9.81151 9.18652 9.81152H8.68945C8.56728 9.81138 8.4688 9.71195 8.46875 9.58984V9.22461C8.46875 8.95575 8.53589 8.72211 8.68066 8.51172C8.82472 8.30253 9.04325 8.11846 9.34082 7.94336H9.3418C9.64743 7.76689 9.85301 7.61248 9.98242 7.45312C10.11 7.29592 10.165 7.13169 10.165 6.93066C10.165 6.70355 10.0705 6.51786 9.91309 6.38867C9.75483 6.25882 9.53051 6.1836 9.27148 6.18359C8.91288 6.18359 8.64102 6.27901 8.44727 6.44922C8.25342 6.61974 8.13191 6.87086 8.08398 7.19238C8.06675 7.30835 7.96601 7.40166 7.84375 7.39453L7.29492 7.3623C7.17696 7.35524 7.08192 7.25483 7.09277 7.13281C7.14207 6.5809 7.37206 6.11005 7.74902 5.77734C8.12611 5.44466 8.64693 5.25293 9.27148 5.25293Z" fill="black"/>
</svg>
