<svg width="201" height="133" viewBox="0 0 201 133" fill="none" xmlns="http://www.w3.org/2000/svg">
<path fill-rule="evenodd" clip-rule="evenodd" d="M83.8564 130.471C85.3404 131.6 87.2128 133.024 89.4093 131.605C89.4416 131.586 97.0567 127.504 100.054 125.953C103.704 124.036 107.366 122.14 111.027 120.243L111.028 120.242C115.582 117.884 120.136 115.525 124.669 113.126C133.195 108.618 141.688 104.036 150.15 99.3812C154.219 97.1657 158.256 94.8147 162.131 92.2763C167.654 88.6925 173.048 84.9686 178.516 81.1929L178.747 81.034C179.302 80.6503 179.859 80.2661 180.416 79.8815C182.606 78.3708 184.793 76.8494 186.981 75.327L186.982 75.3263C190.911 72.592 194.846 69.8544 198.812 67.1702C200.116 66.2853 200.362 65.3681 199.6 64.1732C198.715 62.791 187.373 53.1412 183.904 50.3574C177.717 45.4098 171.503 40.5075 165.173 35.7601C160.846 32.5112 156.363 29.4949 151.842 26.4785C148.092 23.9655 144.298 21.513 140.505 19.0603C139.189 18.2097 137.874 17.359 136.56 16.5058C131.965 13.5132 127.362 10.5334 122.751 7.56662L122.75 7.56635C119.275 5.32517 115.801 3.08399 112.268 0.939695C111.62 0.673748 110.894 0.673748 110.246 0.939695C109.657 1.16178 109.109 1.48782 108.56 1.81446C108.151 2.05778 107.741 2.30148 107.314 2.50277C104.248 3.93686 101.177 5.36618 98.1061 6.79576L98.1006 6.79831L98.099 6.79905L98.0979 6.79955C92.4156 9.44437 86.7314 12.09 81.0772 14.7684C80.1831 15.1883 79.2871 15.6042 78.3912 16.0201C75.0152 17.5874 71.6405 19.1539 68.3788 20.9303C61.5969 24.593 54.8855 28.3782 48.1714 32.1649C46.0293 33.3731 43.8869 34.5814 41.7419 35.7859C36.2561 38.8561 30.7918 41.9564 25.349 45.0869C24.6204 45.5029 23.8908 45.9172 23.1613 46.3315L23.1602 46.3322L23.1587 46.333L23.1573 46.3339L23.1558 46.3347L23.1543 46.3355C20.0578 48.0942 16.9619 49.8525 13.9424 51.7332C9.9206 54.2522 5.97201 56.8832 2.09661 59.6261C2.00694 59.6891 1.91669 59.7513 1.82669 59.8134C1.0221 60.3683 0.238253 60.9088 0.0814066 61.8673C0.0016957 62.1747 0.0136476 62.4987 0.11579 62.7994C0.217932 63.1001 0.405803 63.3644 0.656257 63.5596C2.64403 65.2484 4.64684 66.9322 6.6528 68.6186C8.59015 70.2473 10.5308 71.8788 12.4633 73.5194C15.8478 76.4087 19.2172 79.3131 22.5716 82.2325C23.9814 83.4569 25.3757 84.7021 26.7704 85.9476C29.4076 88.3028 32.0459 90.6589 34.792 92.877C38.8569 96.1609 43.0003 99.356 47.1406 102.549L47.143 102.551C49.5083 104.374 51.8726 106.198 54.2207 108.036C56.194 109.58 58.1593 111.135 60.1248 112.691L60.1268 112.692C63.7189 115.535 67.3118 118.379 70.9559 121.154C74.2859 123.675 77.7093 126.097 81.1301 128.517L81.1346 128.521C81.8328 129.015 82.5308 129.509 83.228 130.003C83.429 130.146 83.6385 130.306 83.8564 130.471ZM8.30451 65.2672L8.25146 65.2217L8.21171 65.1877C7.15542 64.2825 6.09288 63.372 5.02254 62.4551C5.89677 61.859 6.75816 61.2538 7.61575 60.6513C9.54598 59.2951 11.457 57.9523 13.4515 56.7583C22.5264 51.2875 31.6013 45.8813 40.8054 40.6173L41.9029 39.9914C51.7106 34.3987 61.5319 28.7982 71.5631 23.6301C82.7436 17.8622 93.7626 12.3527 105.098 6.88196C105.395 6.73963 105.774 6.53856 106.159 6.33436C106.787 6.00111 107.431 5.65954 107.759 5.55141C109.968 4.81509 111.254 5.02177 112.926 6.06813C115.656 7.79053 118.38 9.51293 121.097 11.2353C121.696 11.6164 122.295 11.9972 122.893 12.3779L122.894 12.3781L122.901 12.3826C126.562 14.7108 130.22 17.0369 133.854 19.4059C134.495 19.8246 135.136 20.2429 135.778 20.6612C139.977 23.399 144.179 26.1384 148.302 28.9846C149.662 29.9226 151.024 30.8581 152.387 31.7938C158.698 36.1285 165.014 40.4659 171.128 45.061C175.16 48.0961 179.051 51.3297 182.942 54.5635L182.944 54.5653C185.329 56.5473 187.713 58.5294 190.131 60.4657C190.737 60.9504 191.341 61.404 191.936 61.8511C193.204 62.8044 194.433 63.7279 195.563 64.8579C194.974 65.2991 194.454 65.7131 193.948 66.116C193.129 66.7687 192.347 67.3921 191.364 68.0551C188.89 69.7241 186.535 71.3861 184.164 73.0593L184.162 73.061C182.597 74.1651 181.026 75.2744 179.409 76.3936C178.471 77.0427 177.534 77.6931 176.596 78.3435C167.836 84.4232 159.079 90.5001 149.626 95.5122C148.058 96.3437 146.543 97.2664 145.026 98.1903C143.443 99.154 141.858 100.119 140.209 100.983C136.915 102.713 133.604 104.397 130.294 106.081C126.265 108.13 122.238 110.178 118.249 112.306C108.541 117.453 98.8911 122.724 89.2478 127.994C88.4533 128.427 87.9108 128.498 87.2067 127.949C83.029 124.68 78.6976 121.629 74.366 118.578C68.6924 114.582 63.0183 110.585 57.6892 106.099C54.2151 103.181 50.6215 100.416 47.0245 97.6482C43.9875 95.3113 40.9479 92.9723 37.9763 90.5388C34.0787 87.3762 30.2894 84.1116 26.4831 80.8324C24.8713 79.4438 23.256 78.0521 21.6286 76.6649C17.2194 72.9064 12.8186 69.1354 8.30451 65.2672ZM115.866 86.3211C116.667 83.1734 117.467 80.0279 118.268 76.8845C118.475 76.2903 118.74 76.3355 118.863 76.8651C118.95 77.2541 119.038 77.6414 119.127 78.0284C119.328 78.9074 119.529 79.7855 119.709 80.6824C119.877 81.5062 120.037 82.3319 120.198 83.1573C120.563 85.0305 120.927 86.9025 121.375 88.7497C121.465 89.1737 121.642 89.5745 121.894 89.9269C122.146 90.2793 122.469 90.5756 122.841 90.7972C123.371 90.9845 124.501 90.3192 124.947 89.725C125.886 88.4537 126.676 87.0799 127.305 85.63C129.617 80.3422 131.875 75.0329 134.08 69.7021L134.102 69.6538L134.114 69.6253C134.316 69.1776 134.636 68.465 133.88 67.9711C133.518 67.8195 133.119 67.7847 132.736 67.8716C132.354 67.9585 132.009 68.1626 131.748 68.4555C130.268 70.5898 128.95 72.8332 127.808 75.1664C126.948 77.0034 126.22 78.9014 125.492 80.7992L125.491 80.7999V80.8022L125.49 80.8024C125.082 81.8661 124.674 82.9301 124.243 83.9829C124.022 84.6443 123.661 85.2502 123.184 85.7592C123.051 85.0406 122.948 84.3406 122.848 83.6684C122.686 82.5704 122.534 81.5466 122.286 80.6372C121.433 77.4981 120.542 74.359 119.496 71.2781C118.992 69.799 117.79 69.6375 116.828 70.8324C116.219 71.6285 115.78 72.5407 115.536 73.5129C114.896 75.9703 114.31 78.4444 113.722 80.9187V80.9227L113.721 80.9241V80.9268L113.72 80.9281V80.9295C113.413 82.2236 113.106 83.5178 112.791 84.8097C112.094 87.2133 111.523 89.6517 111.08 92.1148C110.963 92.9157 111.151 94.3819 112.559 94.6984C113.599 94.9438 113.973 93.9815 114.199 93.0061C114.566 91.3972 114.975 89.8016 115.385 88.205C115.546 87.5775 115.707 86.9498 115.866 86.3211ZM99.3433 84.5643C96.4045 84.4157 96.1849 84.6095 95.3775 87.1479C94.9568 88.475 94.493 89.7862 94.0292 91.0977L94.0288 91.0989L94.0284 91.1001C93.7093 92.0026 93.3898 92.9056 93.0846 93.8135C92.6906 94.9826 91.9155 95.1053 90.9273 94.6855C89.939 94.2657 89.5321 93.7489 89.9649 92.5476C90.5917 90.8265 91.1699 89.0863 91.7482 87.3457C92.5524 84.9254 93.3569 82.504 94.2924 80.1334C95.7616 76.1477 97.8025 72.3967 100.351 68.9981C100.44 68.8841 100.523 68.7649 100.604 68.6475C101.023 68.0467 101.408 67.4936 102.353 67.9259C103.484 68.4426 104.368 69.1143 104.181 70.5741C104.046 71.6175 103.908 72.7486 103.767 73.9083C103.491 76.18 103.201 78.5609 102.889 80.6049C102.864 80.7837 102.836 80.9306 102.813 81.0524C102.714 81.5727 102.703 81.6317 103.316 81.7417C104.071 81.8773 104.543 83.7827 103.27 84.0475L103.186 84.065C102.81 84.142 102.624 84.18 102.624 84.4932C102.565 86.3363 102.57 88.2687 102.575 90.1749V90.1776C102.577 91.1696 102.579 92.1545 102.573 93.116C102.573 93.3163 102.618 93.5323 102.663 93.7492C102.794 94.3782 102.926 95.0141 101.966 95.2926C101.042 95.5639 99.5435 94.4142 99.466 93.3549C99.3801 92.162 99.3654 90.965 99.3507 89.7672C99.3466 89.4346 99.3425 89.1017 99.3369 88.7691C99.333 87.9556 99.336 87.1466 99.3391 86.3181V86.3054C99.3412 85.7368 99.3433 85.159 99.3433 84.5643ZM99.6534 81.1733L100.041 76.342L99.6663 76.2709L97.3927 81.4381L99.6534 81.1733ZM56.023 60.9114C55.7531 61.3768 55.6084 61.9042 55.6031 62.4422C55.7323 63.1139 56.643 62.8297 56.643 62.8297C56.7795 62.6894 56.8988 62.5332 56.9983 62.3647C57.8497 60.8984 58.6916 59.4128 59.5354 57.9238C60.2341 56.6907 60.9342 55.4552 61.6423 54.2263C61.8116 53.9327 61.9694 53.5973 62.1287 53.2587C62.5404 52.3837 62.9621 51.4873 63.6187 51.2358C64.71 50.821 65.946 50.787 67.2368 50.7516C67.7949 50.7363 68.3632 50.7207 68.9345 50.6739L68.5857 52.4695C68.4585 53.1276 68.3291 53.7852 68.1996 54.4429C67.8361 56.2897 67.4726 58.1367 67.1583 59.9942C66.9709 61.0729 67.0226 62.2096 68.1723 62.8168C68.372 62.9373 68.5951 63.014 68.8267 63.0419C69.0583 63.0697 69.2932 63.048 69.5158 62.9783C69.7935 62.8039 69.8258 62.229 69.8452 61.6865C69.854 61.4405 69.8269 61.2794 69.7947 61.0878C69.7559 60.8568 69.7096 60.5813 69.7096 60.0588C69.7096 59.1029 71.1822 53.1348 72.0606 49.7244C72.5874 47.6894 73.1487 45.6615 73.7103 43.6326C74.457 40.9348 75.2042 38.2352 75.8714 35.5146C75.9155 35.3373 75.9598 35.1687 76.0024 35.006C76.2535 34.0491 76.4503 33.2988 76.2461 32.1947C76.2334 32.1309 76.2219 32.0488 76.2087 31.9544L76.2085 31.9532C76.1066 31.2257 75.9021 29.7662 74.3084 30.2118C73.8768 30.4819 73.5035 30.8354 73.2103 31.2517C72.7787 31.9323 72.3462 32.6124 71.9138 33.2926L71.9095 33.2994C69.8522 36.5354 67.7936 39.7731 65.8148 43.0587C65.2931 43.9244 64.7672 44.7875 64.2412 45.6507C61.2314 50.5902 58.2221 55.5289 56.023 60.9114ZM66.1636 47.5606L65.8923 47.2119L71.8733 38.0788L72.2415 38.1564C72.2043 38.753 72.1266 39.3465 72.009 39.9326C71.4729 41.9478 70.9239 43.9694 70.2779 45.9459C70.1566 46.2226 69.9791 46.4711 69.7568 46.6757C69.5344 46.8802 69.272 47.0364 68.9862 47.1343C68.0592 47.357 67.1149 47.4996 66.1636 47.5606ZM127.104 60.3301C125.353 61.1246 124.875 60.2913 124.255 58.3343C123.762 56.7713 123.314 55.1939 122.867 53.6155L122.866 53.6128C122.647 52.8374 122.427 52.0617 122.201 51.2875C122.165 51.1662 122.128 51.0449 122.084 50.9C122.025 50.7054 121.952 50.4682 121.852 50.1313C121.653 50.3996 121.465 50.6405 121.289 50.8657L121.288 50.8668C120.952 51.2972 120.66 51.6707 120.419 52.069C120.175 52.4753 119.931 52.8809 119.685 53.2866C118.583 55.1127 117.479 56.9408 116.543 58.8381C115.897 60.0588 115.161 60.0782 114.198 59.6196C113.236 59.161 112.978 58.2891 113.553 57.3331C113.978 56.6599 114.402 55.9841 114.825 55.3077L114.826 55.3067L114.827 55.3045L114.829 55.301L114.83 55.2997L114.831 55.2984C116.031 53.382 117.234 51.461 118.507 49.5823L118.652 49.3689C120.989 45.939 121.026 45.885 120.07 41.6184C119.927 40.9865 119.757 40.3604 119.587 39.7343C119.358 38.8886 119.129 38.042 118.965 37.1811C118.862 36.6385 119.056 35.5728 119.295 35.5147C119.941 35.3661 121.11 35.3984 121.303 35.773C122.022 37.257 122.631 38.7919 123.125 40.3653C123.304 41.0217 123.444 41.6882 123.545 42.3612C124.385 41.2594 125.181 40.2174 125.953 39.2093L125.954 39.2072L125.955 39.2058C127.027 37.8041 128.049 36.4678 129.067 35.1271C129.115 35.0651 129.162 35.002 129.209 34.9389C129.654 34.3441 130.1 33.7479 131.005 34.0808C131.111 34.1195 131.227 34.1563 131.345 34.1939C131.76 34.3253 132.201 34.4654 132.342 34.7267C132.425 34.9758 132.451 35.2407 132.418 35.5014C132.384 35.7621 132.292 36.0117 132.148 36.2316C131.372 37.2976 130.553 38.3292 129.733 39.3613L129.732 39.3617L129.731 39.3633C129.22 40.0066 128.709 40.65 128.208 41.3019C127.045 42.7227 125.966 44.2108 124.979 45.7586C124.604 46.5477 124.511 47.4411 124.714 48.2905C125.35 51.2537 126.053 54.205 126.758 57.166L126.759 57.1686C126.956 57.9952 127.153 58.8233 127.349 59.6519C127.38 59.7765 127.373 59.9076 127.33 60.0284C127.286 60.1493 127.207 60.2543 127.104 60.3301ZM62.3093 73.0745C62.4675 73.5337 62.61 73.9475 62.9022 73.9714C64.8528 74.0942 65.6279 71.5299 63.4383 69.6568C61.7266 68.1713 59.705 68.1196 57.2053 69.6568C51.8379 72.9638 48.7376 77.6789 48.5503 84.0862C48.4663 88.052 50.2296 93.2192 54.3634 94.511C55.4696 94.7724 56.6232 94.7569 57.722 94.4658C57.966 94.4169 58.1956 94.3132 58.3935 94.1625C58.5915 94.0118 58.7525 93.818 58.8645 93.5958C58.9766 93.3737 59.0366 93.129 59.0401 92.8802C59.0435 92.6315 58.9904 92.3852 58.8847 92.16C58.5535 91.2129 57.7728 91.4 57.0269 91.5788C56.9439 91.5987 56.8605 91.6187 56.779 91.6368C54.822 92.076 54.0921 91.8306 53.401 89.9768C51.5925 85.1197 52.3546 80.5467 55.3387 76.3548C56.6978 74.2652 58.703 72.6774 61.0484 71.8335C61.8242 71.6662 62.0828 72.4169 62.3093 73.0745ZM152.513 65.6264C152.325 65.8423 150.959 66.1582 149.504 66.4947C148.565 66.712 147.588 66.9378 146.868 67.1508C146.442 67.2735 145.867 67.6094 145.757 67.9646C145.385 69.191 145.069 70.5015 144.749 71.831V71.8325C144.575 72.5538 144.4 73.2817 144.214 74.0038C144.764 74.1403 145.494 74.1506 146.242 74.1612C148.075 74.1871 150.013 74.2144 149.646 76.1094C149.482 76.5023 148.719 76.5817 148.124 76.6436C148.015 76.655 147.911 76.6657 147.818 76.6778C147.275 76.7471 146.727 76.777 146.18 76.8069C145.553 76.8412 144.927 76.8754 144.311 76.9684C144.087 77.011 143.876 77.1057 143.695 77.2448C143.514 77.3839 143.369 77.5636 143.271 77.7693C142.715 80.3529 142.179 82.9365 141.811 85.5847C141.572 87.3222 142.03 87.5806 143.749 86.9347C144.167 86.7736 144.575 86.589 144.983 86.4047C145.507 86.1679 146.03 85.9314 146.571 85.7462C147.185 85.4995 147.851 85.4064 148.509 85.4749C148.568 85.4859 148.627 85.494 148.686 85.502C149.077 85.5557 149.454 85.6074 149.723 86.489C149.659 86.9599 149.297 87.1483 148.971 87.3178L148.918 87.3452C148.9 87.3548 148.882 87.3643 148.864 87.3739C148.18 87.7447 147.484 88.0908 146.787 88.4367C145.931 88.8619 145.076 89.2871 144.246 89.7572C142.534 90.7261 141.152 89.9962 139.905 88.9563C139.33 88.4745 138.904 87.8395 138.675 87.1249C138.446 86.4104 138.425 85.6456 138.614 84.9194C139.716 79.5757 140.84 74.2363 141.985 68.9011C142.189 67.909 142.459 66.9315 142.793 65.9752C142.866 65.7704 142.979 65.5821 143.125 65.4214C143.271 65.2606 143.448 65.1305 143.645 65.0387C145.341 64.4704 147.066 63.9939 148.812 63.6112C150.421 63.2625 153.799 63.4433 152.513 65.6264ZM86.897 63.2625C87.3363 62.3711 86.9358 62.0611 85.6957 62.1967C84.8588 62.2806 84.0169 62.3043 83.1767 62.2678C81.8332 62.2678 81.3552 61.6219 81.6653 60.3301C81.7557 59.9362 81.8224 59.5423 81.8886 59.1514C81.9689 58.677 82.0487 58.2068 82.1691 57.7465C83.6546 52.1272 85.1617 46.5186 86.6904 40.9208C86.8216 40.447 86.9989 39.9731 87.1774 39.4961C87.3589 39.0109 87.5418 38.5222 87.6786 38.0272C87.7546 37.8331 87.786 37.6244 87.7703 37.4165C87.7547 37.2086 87.6925 37.0069 87.5882 36.8264C87.484 36.6458 87.3404 36.491 87.1682 36.3736C86.996 36.2561 86.7996 36.1788 86.5935 36.1476C86.1478 36.0701 85.4761 36.5998 85.095 37.026C84.7047 37.5045 84.4286 38.0655 84.2876 38.6666C82.4403 45.5713 80.6124 52.4824 78.8362 59.4129C78.6476 60.2069 78.6631 61.0358 78.8814 61.8221C79.6113 64.3605 81.7234 65.0064 85.0498 64.4057C85.7714 64.2306 86.4184 63.8301 86.897 63.2625ZM72.4103 95.1828C72.927 93.3872 73.4954 91.611 74.1413 89.6733C74.888 90.746 75.618 91.8075 76.3405 92.8581L76.3428 92.8615C78.0818 95.3902 79.7771 97.8555 81.5562 100.26C81.6617 100.399 81.7698 100.57 81.8842 100.752C82.3865 101.551 83.0102 102.543 84.0623 101.79C85.0122 101.116 84.3566 100.202 83.8026 99.43C83.6937 99.2782 83.5885 99.1316 83.5004 98.9936C82.6596 97.6756 81.7829 96.3788 80.9055 95.081C80.0373 93.7968 79.1684 92.5115 78.3332 91.2041C76.9316 89.0016 77.0414 88.6851 78.8241 86.8766C80.9426 84.7257 83.0418 82.5555 84.1334 79.6425C85.1668 76.8587 84.7728 75.1212 82.5832 73.1835C80.9878 71.7754 77.6938 71.7367 76.4666 73.4419C75.1817 75.1926 74.1712 77.1288 73.4696 79.1839C72.1824 83.1123 71.0662 87.0936 69.9496 91.0761C69.6599 92.1092 69.3702 93.1428 69.0775 94.1752C68.7158 95.467 69.3294 96.3454 70.7697 96.6813C71.9174 96.9438 72.1361 96.162 72.3694 95.3283L72.3703 95.3251C72.3835 95.2778 72.3968 95.2303 72.4103 95.1828ZM77.984 77.3172C77.5189 78.0019 74.9353 85.9206 74.9353 85.9206C74.9353 85.9206 77.3574 84.0281 78.1002 83.2659C78.843 82.5038 82.2404 78.4152 81.0003 76.2838C79.8773 74.3536 78.696 76.2052 78.1376 77.0806C78.0793 77.1719 78.0279 77.2525 77.984 77.3172ZM96.8953 61.8738C99.0073 62.468 103.354 60.5691 104.646 58.3343C105.165 56.6603 103.081 57.18 100.852 57.7358C99.6401 58.0378 98.3858 58.3506 97.483 58.3278C97.582 57.9308 97.6797 57.5388 97.7765 57.1508C98.185 55.5124 98.5757 53.9458 98.9621 52.3791C99.0113 52.178 99.0559 51.9906 99.0975 51.8159C99.6022 49.6958 99.6626 49.442 102.05 49.1496C102.101 49.1439 102.164 49.1371 102.238 49.1292C102.994 49.048 104.833 48.851 105.421 48.5037C106.022 48.3874 107.546 46.1333 104.129 46.1978C103.967 46.2008 103.36 46.1768 102.677 46.1499C101.864 46.1178 100.945 46.0816 100.545 46.0816C100.688 45.5502 100.817 45.0408 100.941 44.5492C101.243 43.3558 101.519 42.2674 101.907 41.2244C101.924 41.1807 101.941 41.1345 101.959 41.0865C102.167 40.5177 102.471 39.6895 103.412 39.5645C103.987 39.5231 104.637 39.5265 105.284 39.5299C106.555 39.5366 107.815 39.5432 108.47 39.2092C111.015 37.911 109.18 36.6062 104.853 36.4577H101.255C99.6855 36.4577 98.9557 37.433 98.9557 37.6461C98.5547 39.3781 98.1291 41.103 97.7037 42.8274C97.3136 44.4083 96.9237 45.9887 96.5529 47.5736C96.4871 47.8539 96.4212 48.1342 96.3553 48.4146C95.6191 51.5457 94.8814 54.6832 94.2471 57.8369C93.8272 59.9361 94.7832 61.2796 96.8953 61.8738Z" fill="black"/>
</svg>
