<svg width="106" height="71" viewBox="0 0 106 71" fill="none" xmlns="http://www.w3.org/2000/svg">
<path fill-rule="evenodd" clip-rule="evenodd" d="M44.2235 68.8056C45.0061 69.401 45.9933 70.152 47.152 69.4036C47.1688 69.3936 51.1847 67.2409 52.7657 66.423L58.5525 63.4117L58.553 63.4112L65.7468 59.6585L79.1845 52.4099C81.3304 51.2412 83.4593 50.0014 85.5029 48.663C88.4155 46.7729 91.2601 44.809 94.1437 42.8182L94.2655 42.7343L95.1457 42.1263L98.6079 39.7242L98.6084 39.7236L104.847 35.4225C105.535 34.9557 105.665 34.4721 105.263 33.8419C104.796 33.1131 98.8146 28.0241 96.9852 26.5559L87.1071 18.8585C84.8252 17.1451 82.461 15.5546 80.0768 13.9635L74.0981 10.0515L72.0177 8.70412L64.7353 3.99002L59.207 0.495713C58.8654 0.355351 58.4822 0.355351 58.1406 0.495713C57.83 0.612788 57.541 0.784708 57.2515 0.957156C57.0358 1.08531 56.8196 1.21398 56.5944 1.31998L51.7384 3.58395L51.7358 3.58553L51.7347 3.58606L42.758 7.78862L41.3415 8.44888C39.5611 9.27526 37.7812 10.1016 36.0615 11.0382L25.4046 16.9626L22.0141 18.8722L13.3691 23.7772L12.2152 24.4338L12.2136 24.4343L12.2131 24.4348L12.212 24.4354L12.211 24.4359L7.35292 27.2826C5.23183 28.6111 3.14863 29.9992 1.10577 31.4451L0.963383 31.5437C0.538855 31.8364 0.12593 32.1212 0.0431338 32.6269C0.00111304 32.789 0.00734495 32.9598 0.0610642 33.1184C0.114855 33.2771 0.213999 33.4164 0.34584 33.5192L3.50844 36.1871L6.57295 38.7717L11.9035 43.3667L14.1179 45.3258C15.5086 46.5677 16.9003 47.8102 18.3484 48.9799C20.4922 50.7118 22.677 52.3967 24.8608 54.0806L24.8619 54.0816L28.5946 56.9742L31.7081 59.4291L31.7092 59.4296L37.42 63.8922C39.1761 65.2216 40.9813 66.4989 42.7854 67.7751L42.788 67.7772L43.8918 68.5588C43.9978 68.6342 44.1086 68.7186 44.2235 68.8056ZM4.3807 34.4194L4.35275 34.3952L4.33165 34.3772L2.64989 32.9359L4.01734 31.9846C5.03515 31.2695 6.04295 30.5612 7.09504 29.9315L21.5205 21.4194L22.0996 21.0892L37.7412 12.4611L55.4263 3.62878C55.5829 3.55389 55.7828 3.44789 55.9858 3.33978C56.317 3.16417 56.6566 2.98381 56.8296 2.92686C57.9946 2.53872 58.6727 2.64736 59.5545 3.1995L63.8636 5.92439L64.8107 6.52717L64.8149 6.5298L70.5912 10.2335L71.6058 10.8953L78.2105 15.2846L80.3648 16.7659L90.2481 23.7625C92.3744 25.363 94.4264 27.0685 96.4784 28.7735L96.4794 28.7745L100.27 31.886C100.589 32.1417 100.908 32.3806 101.221 32.6164C101.89 33.1189 102.538 33.6062 103.134 34.2021C102.847 34.4189 102.563 34.6401 102.283 34.8656C101.851 35.2099 101.438 35.5385 100.92 35.8881L97.1228 38.527L97.1217 38.5281L94.6152 40.2858L93.1317 41.3142C88.512 44.5205 83.8939 47.7253 78.9087 50.3685C78.0818 50.8067 77.2829 51.2935 76.4829 51.7807C75.648 52.2891 74.8122 52.798 73.9426 53.2537L68.7137 55.9422L62.3616 59.225L47.0676 67.4983C46.6489 67.7266 46.3625 67.7641 45.9912 67.4745C43.7879 65.7506 41.5039 64.1416 39.2194 62.5326C36.2271 60.4253 33.2348 58.3174 30.4245 55.9517C28.5925 54.4128 26.6971 52.9546 24.8002 51.4949L20.0286 47.7459C17.973 46.0778 15.9748 44.3565 13.9676 42.6273L11.4073 40.4292L4.3807 34.4194ZM61.1044 45.5225L62.3711 40.5458C62.4803 40.2325 62.6201 40.2563 62.6849 40.5358L62.8241 41.1491L63.1311 42.5487L63.3889 43.8539C63.5814 44.8417 63.7734 45.8289 64.0097 46.803C64.0572 47.0265 64.1504 47.2378 64.2834 47.4237C64.4164 47.6094 64.5864 47.7656 64.7828 47.8825C65.0623 47.9811 65.6582 47.6304 65.8934 47.3171C66.3883 46.6467 66.8055 45.9222 67.1369 45.1576L70.7098 36.7577L70.7214 36.7324L70.7277 36.7171C70.8343 36.4809 71.003 36.1054 70.6043 35.8449C70.4137 35.7649 70.2029 35.7465 70.0013 35.7923C69.7997 35.838 69.6174 35.9457 69.48 36.1001C68.6995 37.2255 68.0044 38.4089 67.4022 39.6393C66.9487 40.608 66.5647 41.609 66.1808 42.6099L66.1803 42.6104V42.6115L65.5221 44.2885C65.4056 44.6373 65.2151 44.9568 64.9637 45.2251C64.8935 44.8459 64.8392 44.4768 64.7865 44.1224C64.701 43.5433 64.6209 43.0033 64.4901 42.5239C64.0402 40.8685 63.5704 39.2131 63.0187 37.5883C62.753 36.8084 62.1191 36.7229 61.6117 37.3531C61.2908 37.7729 61.0589 38.2539 60.9304 38.7665C60.5929 40.0622 60.2838 41.3674 59.9737 42.6721V42.6742L59.9732 42.6748V42.6763L59.9727 42.6769L59.4828 44.7236C59.1152 45.9913 58.8141 47.2771 58.5805 48.5759C58.5188 48.9984 58.6179 49.7715 59.3604 49.9387C59.9089 50.0679 60.1061 49.5605 60.2253 49.0464C60.4188 48.1978 60.6345 47.3562 60.8508 46.5145L61.1044 45.5209V45.5225ZM52.3908 44.5959C50.8409 44.5174 50.7254 44.6197 50.2993 45.9586C50.0772 46.6585 49.8326 47.3498 49.5884 48.0417V48.0428L49.0906 49.4735C48.8828 50.09 48.4741 50.1549 47.953 49.9334C47.432 49.7119 47.2174 49.4392 47.4457 48.8059C47.7764 47.8983 48.0812 46.9807 48.386 46.0625C48.81 44.7863 49.2345 43.509 49.7276 42.2592C50.5025 40.1573 51.5789 38.1792 52.9229 36.387C52.9692 36.3266 53.0137 36.2649 53.0563 36.2019C53.2773 35.885 53.4803 35.5933 53.9787 35.8211C54.5751 36.0938 55.0413 36.4476 54.9427 37.2176L54.7244 38.9758L54.2613 42.5076C54.2482 42.602 54.2334 42.6795 54.2213 42.7438C54.1691 43.0181 54.1633 43.0492 54.4865 43.1072C54.8847 43.1789 55.1336 44.1835 54.4623 44.3233L54.418 44.3323C54.2197 44.3729 54.1216 44.3929 54.1216 44.558C54.0905 45.5299 54.0931 46.5488 54.0958 47.5544V47.556L54.0947 49.1054C54.0947 49.2109 54.1184 49.3248 54.1422 49.4392C54.2112 49.771 54.2809 50.1064 53.7746 50.253C53.2873 50.3959 52.4973 49.7899 52.4562 49.2309C52.4108 48.6018 52.4029 47.9705 52.3955 47.3388L52.3882 46.8124L52.3892 45.5199V45.513L52.3913 44.5949L52.3908 44.5959ZM52.5543 42.8076L52.7589 40.26L52.5611 40.2225L51.3619 42.9474L52.5543 42.8076ZM29.5454 32.1222C29.403 32.3674 29.3266 32.6459 29.3239 32.9296C29.392 33.284 29.8724 33.1342 29.8724 33.1342C29.9441 33.0604 30.0074 32.9776 30.0596 32.889L31.3975 30.547L32.5087 28.5973C32.6009 28.4307 32.6864 28.2604 32.765 28.0868C32.9822 27.6254 33.2043 27.1529 33.5507 27.02C34.1261 26.8011 34.7779 26.7832 35.4587 26.7647C35.753 26.7568 36.0525 26.7484 36.3542 26.7236L36.1702 27.6707L35.9666 28.7112L35.4176 31.6386C35.319 32.2076 35.3459 32.8067 35.9523 33.1274C36.0577 33.1908 36.1753 33.2311 36.2974 33.2457C36.4195 33.2604 36.5432 33.249 36.6606 33.2123C36.8072 33.1205 36.8241 32.8173 36.8341 32.5309C36.8388 32.4012 36.8246 32.3163 36.8077 32.215C36.7872 32.0932 36.7629 31.9477 36.7629 31.6724C36.7629 31.1682 37.5397 28.0209 38.0027 26.2226L38.8729 23.0099L40.0125 18.7288L40.0816 18.4603C40.214 17.9557 40.3179 17.5601 40.2103 16.9779C40.2027 16.9359 40.1962 16.8937 40.1908 16.8514V16.8508C40.137 16.4674 40.0294 15.6975 39.1888 15.9327C38.961 16.0751 38.7643 16.2618 38.6097 16.4811L37.9257 17.5575L37.9236 17.5612L34.7094 22.7077L33.8793 24.0747C32.2919 26.6798 30.7051 29.2834 29.5454 32.1222ZM34.8934 25.0814L34.7505 24.8973L37.9046 20.0809L38.0987 20.1221C38.0792 20.4369 38.0381 20.7496 37.9758 21.0587C37.6932 22.1213 37.4037 23.1876 37.063 24.2297C36.9992 24.3758 36.9053 24.5066 36.7882 24.6147C36.6711 24.7228 36.5324 24.805 36.3816 24.8567C35.8927 24.9741 35.3952 25.0493 34.8934 25.0814ZM67.0309 31.8158C66.1075 32.2345 65.8554 31.7952 65.5285 30.7632C65.2722 29.9373 65.0282 29.1077 64.7965 28.2746L64.796 28.273L64.4453 27.0469L64.3836 26.8423L64.2612 26.4367C64.1563 26.578 64.0571 26.7051 63.9643 26.8238L63.9638 26.8243C63.7866 27.0511 63.6326 27.2483 63.5055 27.4582L63.1184 28.1005C62.5373 29.0635 61.955 30.0275 61.4614 31.0279C61.1208 31.6718 60.7326 31.6819 60.2248 31.4403C59.7169 31.1988 59.5814 30.7384 59.8846 30.2348L60.5554 29.1669L60.556 29.1663L60.5565 29.1653L60.5575 29.1637L60.5581 29.1632L60.5586 29.1627L62.4972 26.1482L62.5736 26.0359C63.8061 24.2271 63.8256 24.1986 63.3214 21.9488C63.246 21.6156 63.1564 21.2854 63.0667 20.9553C62.946 20.5091 62.8252 20.063 62.7387 19.6089C62.6844 19.3226 62.7867 18.7609 62.9127 18.7304C63.2534 18.6518 63.8699 18.6692 63.9717 18.8664C64.3509 19.649 64.672 20.4584 64.9325 21.2881C65.0269 21.634 65.1008 21.9858 65.154 22.3407L66.4239 20.6784L66.4245 20.6774L66.425 20.6768L68.0661 18.5257L68.141 18.4266C68.3757 18.1128 68.6109 17.7985 69.0882 17.9741C69.1441 17.9947 69.2052 18.0137 69.2675 18.0337C69.4863 18.1028 69.7189 18.1771 69.7933 18.3148C69.837 18.4461 69.8507 18.5859 69.8333 18.7235C69.8159 18.8611 69.7669 18.9925 69.6909 19.1085C69.2817 19.6706 68.8498 20.2149 68.4174 20.7591H68.4168L68.4163 20.7602L67.6131 21.7827C66.9997 22.532 66.431 23.3168 65.9103 24.1332C65.7125 24.5493 65.6635 25.0202 65.7705 25.4685L66.8485 30.1488L66.849 30.1504L67.1601 31.4598C67.1765 31.5258 67.1728 31.5949 67.1501 31.6587C67.127 31.7224 67.0855 31.7778 67.0309 31.8179V31.8158ZM32.8604 38.5371C32.9437 38.7791 33.0192 38.9975 33.1731 39.0101C34.202 39.075 34.6107 37.7223 33.4558 36.7345C32.553 35.9509 31.4872 35.924 30.1688 36.7345C27.3384 38.4785 25.703 40.965 25.6044 44.3439C25.5601 46.4354 26.4899 49.1603 28.67 49.8416C29.2534 49.9795 29.8619 49.9714 30.4414 49.8179C30.57 49.7921 30.6911 49.7374 30.7954 49.6579C30.8997 49.5784 30.9846 49.4762 31.0437 49.3591C31.1027 49.2419 31.1344 49.1129 31.1362 48.9817C31.1381 48.8504 31.11 48.7206 31.0542 48.6018C30.8796 48.1024 30.4678 48.201 30.0744 48.2954L29.9436 48.326C28.9115 48.5575 28.5266 48.4283 28.1621 47.4506C27.2081 44.8892 27.6105 42.4775 29.1842 40.2668C29.9009 39.1646 30.9582 38.3277 32.1954 37.8826C32.6047 37.7945 32.7407 38.1901 32.8604 38.5371ZM80.4307 34.6093C80.3316 34.7232 79.6112 34.8898 78.8439 35.067C78.3487 35.1815 77.8334 35.3006 77.4537 35.413C77.2291 35.4778 76.9258 35.655 76.8678 35.8422C76.6717 36.4888 76.505 37.1802 76.3362 37.881L76.0541 39.0265C76.3442 39.0982 76.7291 39.104 77.1236 39.1093C78.0903 39.123 79.1123 39.1372 78.9187 40.1366C78.8323 40.3438 78.4299 40.3855 78.1161 40.4182L77.9547 40.4361C77.6684 40.4725 77.3794 40.4883 77.0909 40.5041C76.7602 40.5221 76.4301 40.5405 76.1053 40.5896C75.9871 40.612 75.8758 40.6619 75.7804 40.7351C75.685 40.8084 75.6085 40.9033 75.5568 41.012C75.2636 42.3747 74.9809 43.7369 74.7869 45.1333C74.6608 46.0494 74.9023 46.1859 75.8089 45.8453C76.0293 45.7604 76.2445 45.6628 76.4597 45.5658C76.736 45.4408 77.0118 45.3163 77.2971 45.2182C77.6211 45.0882 77.9719 45.0391 78.3191 45.0753C78.3503 45.0811 78.3814 45.0853 78.4125 45.0896C78.6187 45.118 78.8175 45.1449 78.9594 45.6101C78.9256 45.8584 78.7347 45.9576 78.5628 46.0472L78.5348 46.0615L78.5063 46.0768C78.1456 46.2724 77.7786 46.4549 77.411 46.6374C76.9596 46.8615 76.5087 47.0856 76.071 47.3335C75.1681 47.8445 74.4393 47.4595 73.7817 46.9111C73.4786 46.6569 73.2537 46.3221 73.133 45.9455C73.0123 45.5686 73.0011 45.1651 73.1009 44.7821L74.8786 36.3348C74.9862 35.8115 75.1286 35.296 75.3047 34.7917C75.3432 34.6836 75.4028 34.5845 75.4798 34.4996C75.5568 34.4147 75.6502 34.3461 75.754 34.2976C76.6482 33.9979 77.5578 33.7465 78.4789 33.5445C79.3275 33.3605 81.1089 33.4559 80.4307 34.6072V34.6093ZM45.8272 33.3626C46.0587 32.8927 45.8478 32.7292 45.1939 32.8004C44.7525 32.8447 44.3084 32.8574 43.8654 32.8378C43.1572 32.8378 42.9046 32.4972 43.0686 31.8158C43.1161 31.608 43.1514 31.4003 43.1862 31.1941C43.2284 30.9441 43.2706 30.6957 43.3344 30.4531L45.7186 21.5797C45.7877 21.3297 45.8815 21.0798 45.9754 20.8282C46.0709 20.5724 46.1674 20.3146 46.2396 20.0535C46.2798 19.9511 46.2964 19.841 46.2881 19.7313C46.2797 19.6216 46.247 19.5151 46.1922 19.4201C46.1373 19.3252 46.0614 19.2435 45.9707 19.1812C45.8798 19.1193 45.7762 19.0785 45.6674 19.0621C45.4322 19.0209 45.0784 19.3004 44.8769 19.5251C44.6712 19.7772 44.5257 20.073 44.4513 20.3905L41.5767 31.3312C41.4771 31.7498 41.4853 32.1869 41.6004 32.6016C41.9854 33.94 43.0992 34.2807 44.8532 33.9643C45.2339 33.872 45.5751 33.6605 45.8272 33.3615V33.3626ZM38.1873 50.196C38.46 49.2489 38.7595 48.3123 39.1002 47.2902L40.2599 48.9699L40.2609 48.9715L43.0101 52.8729C43.0713 52.9569 43.129 53.0435 43.183 53.1324C43.4478 53.5537 43.7768 54.0769 44.3316 53.6798C44.8326 53.3243 44.4867 52.8423 44.1945 52.4352C44.137 52.355 44.0817 52.278 44.0352 52.2053C43.5917 51.5102 43.1292 50.8262 42.6667 50.1417L41.3104 48.0971C40.571 46.9353 40.629 46.7687 41.5693 45.8147C42.6863 44.6803 43.7937 43.5359 44.3691 41.9997C44.9138 40.5315 44.7061 39.6155 43.5517 38.5935C42.7105 37.851 40.9734 37.8304 40.3258 38.7296C39.6482 39.6528 39.1153 40.6739 38.7453 41.7577C38.0666 43.8292 37.478 45.9291 36.8889 48.0291L36.4291 49.6634C36.2382 50.3447 36.562 50.8078 37.3214 50.9849C37.9268 51.1236 38.0418 50.7112 38.1652 50.2714L38.1657 50.2698L38.1868 50.195L38.1873 50.196ZM41.1268 40.7741C40.8816 41.1354 39.5189 45.311 39.5189 45.311C39.5189 45.311 40.7962 44.3133 41.188 43.9109C41.5798 43.5085 43.3713 41.3527 42.7174 40.2288C42.1251 39.211 41.5023 40.1872 41.2075 40.6492L41.1268 40.7741ZM51.0998 32.6301C52.2136 32.9433 54.506 31.9419 55.1874 30.7632C55.4611 29.8804 54.3621 30.1546 53.1866 30.4473C52.5474 30.6066 51.8861 30.7716 51.4099 30.7595L51.5644 30.1388L52.1899 27.6222L52.2611 27.3253C52.5274 26.2073 52.559 26.0734 53.8184 25.9194L53.9175 25.9088C54.3162 25.8661 55.286 25.7622 55.5961 25.5792C55.913 25.518 56.7167 24.3294 54.9147 24.3631C54.8293 24.3647 54.5092 24.352 54.149 24.3378L53.0247 24.3019L53.2335 23.494C53.3928 22.8649 53.5383 22.2906 53.7429 21.7405L53.7704 21.6678C53.8801 21.3677 54.0404 20.931 54.5366 20.8651C54.8399 20.8435 55.1826 20.8451 55.5239 20.8467C56.1941 20.8504 56.8586 20.8535 57.204 20.6774C58.5462 19.9929 57.5785 19.3046 55.2966 19.2266H53.3991C52.5717 19.2266 52.1867 19.7408 52.1867 19.8531L51.5264 22.5854L50.9194 25.0882L50.815 25.5318L49.7033 30.5006C49.4819 31.6075 49.986 32.3168 51.0998 32.6301Z" fill="black"/>
</svg>
